<svg width="38" height="35" viewBox="3 15 38 35" fill="none" xmlns="http://www.w3.org/2000/svg">
<path fill-rule="evenodd" clip-rule="evenodd" d="M30.6652 18.6703L30.6652 18.6703C30.778 18.2491 31.0244 17.7508 31.2143 17.4632C32.5797 14.8948 35.7123 14.1542 38.1472 15.5966C40.5821 17.039 41.4562 20.0946 40.0138 22.5295C39.7674 23.0278 39.444 23.3925 39.1206 23.7573L39.1205 23.7573C38.7971 24.122 38.3966 24.3533 37.996 24.5845C34.4477 26.4551 31.439 29.2603 29.2932 32.6353C28.0614 35.1266 27.2508 37.7308 26.9384 40.5813L26.553 39.9138C26.2446 39.3798 25.5922 38.8664 25.0169 38.4865C24.6907 38.2298 24.3311 37.9924 23.9715 37.755C23.6119 37.5175 23.2523 37.2801 22.9261 37.0234C24.9081 35.5231 26.6588 33.6223 27.9113 31.475C29.7693 27.9101 30.708 23.986 30.5372 19.9903C30.4395 19.5126 30.5523 19.0915 30.6652 18.6703ZM29.2171 19.8624L29.3245 18.1983C29.4373 17.7771 29.5502 17.3559 29.8736 16.9912C27.3163 18.1116 24.5277 18.8315 21.6978 18.8633C19.5561 18.8537 17.3167 18.3665 15.2672 17.5916C13.6389 16.9296 12.0106 16.2676 10.4387 15.395C10.3052 15.329 10.1869 15.267 10.077 15.2095L10.077 15.2095C9.77673 15.0524 9.53995 14.9284 9.23162 14.8458C8.81044 14.733 8.38926 14.6201 7.91165 14.7178C5.08177 14.7496 2.66347 17.0358 2.6952 19.8657C2.72692 22.6956 4.9361 24.9804 7.76599 24.9487C8.66478 24.9638 9.54292 24.6348 10.344 24.1723C13.7381 22.0347 17.749 20.9651 21.7447 20.7943C24.174 20.9939 26.5469 21.404 28.8841 22.3688C28.9763 21.6035 29.0685 20.8382 29.2171 19.8624ZM26.5956 45.2295C26.9342 43.966 26.7745 42.4561 26.1578 41.388L25.6954 40.587C25.2535 40.13 24.8888 39.8066 24.3134 39.4267C20.7485 37.5686 17.7534 34.8475 15.6157 31.4534C14.3824 29.3172 13.6832 26.8727 13.328 24.4076C13.0094 24.5915 12.6733 24.7451 12.3219 24.9056L12.3218 24.9056C11.9369 25.0814 11.5335 25.2656 11.1148 25.5074C10.3137 25.9699 9.22497 26.2425 8.40326 26.3608C10.7817 28.0138 12.6262 29.9752 14.0907 32.5119C15.9613 36.0602 16.8203 40.0146 16.7805 43.9538C16.7447 44.5085 16.9195 45.1197 17.0943 45.7308L17.5568 46.5318C18.9443 48.935 22.2367 49.7043 24.5627 48.1834C25.4202 47.5103 26.2571 46.4931 26.5956 45.2295Z" fill="#303030"/>
</svg>
