<svg width="102" height="27" viewBox="0 0 102 27" xmlns="http://www.w3.org/2000/svg">
<path d="M0 26.5543H14.7343V24.2517H2.57385V0.445668H0V26.5543Z"/>
<path d="M16.2422 13.2957C16.2422 20.9835 21.9494 27 29.5963 27C37.2805 27 42.9505 20.9835 42.9505 13.2957C42.9505 5.83081 37.2805 0 29.5963 0C21.9494 0 16.2422 5.83081 16.2422 13.2957ZM18.9279 13.2957C18.9279 7.13067 23.4788 2.41403 29.5963 2.41403C35.7512 2.41403 40.2647 7.13067 40.2647 13.2957C40.2647 19.6836 35.7512 24.586 29.5963 24.586C23.4788 24.586 18.9279 19.6836 18.9279 13.2957Z"/>
<path d="M47.061 13.4814C47.061 21.2435 52.7309 27 59.9302 27C63.3993 27 66.6073 25.5144 68.4724 23.4718H68.547C68.547 23.4718 68.5097 24.0289 68.5097 24.586V26.5543H70.8597V14.0757H63.9588V16.3783H68.4351V20.7978C66.3835 23.1004 63.3247 24.586 60.1913 24.586C54.1857 24.586 49.7467 19.8693 49.7467 13.4443C49.7467 7.27923 54.0365 2.41403 60.4151 2.41403C63.2128 2.41403 66.3835 3.49106 68.2113 5.01375L69.6288 3.04539C67.0549 0.965613 63.5858 0 60.3032 0C52.7682 0 47.061 5.94223 47.061 13.4814Z"/>
<path d="M75.2917 13.2957C75.2917 20.9835 80.9989 27 88.6458 27C96.3301 27 102 20.9835 102 13.2957C102 5.83081 96.3301 0 88.6458 0C80.9989 0 75.2917 5.83081 75.2917 13.2957ZM77.9774 13.2957C77.9774 7.13067 82.5283 2.41403 88.6458 2.41403C94.8007 2.41403 99.3142 7.13067 99.3142 13.2957C99.3142 19.6836 94.8007 24.586 88.6458 24.586C82.5283 24.586 77.9774 19.6836 77.9774 13.2957Z"/>
</svg>
